 <svg  version="1.0" xmlns="http://www.w3.org/2000/svg"  width="164.000000pt" height="164.000000pt" viewBox="0 0 164.000000 164.000000"  preserveAspectRatio="xMidYMid meet">  <g transform="translate(0.000000,164.000000) scale(0.100000,-0.100000)" fill="#151515" stroke="none"> <path d="M698 1533 c-16 -4 -29 -35 -44 -109 -5 -25 -15 -32 -76 -56 l-70 -26 -60 35 -59 36 -85 -84 c-46 -46 -84 -90 -84 -98 0 -7 13 -36 30 -63 16 -26 30 -52 30 -57 0 -4 -13 -37 -29 -73 l-30 -65 -58 -12 c-32 -7 -64 -18 -70 -23 -18 -15 -18 -231 0 -246 7 -6 39 -18 72 -27 l60 -17 28 -67 c15 -37 27 -70 27 -74 0 -4 -16 -32 -36 -62 l-37 -55 58 -63 c32 -34 71 -75 87 -90 l29 -28 68 38 68 37 44 -21 c24 -11 53 -23 65 -27 16 -5 24 -21 34 -64 21 -96 14 -92 150 -92 135 0 128 -4 149 90 11 56 12 56 74 83 34 15 66 27 72 27 5 0 36 -16 67 -36 37 -22 63 -32 72 -27 7 4 48 45 91 91 l78 82 -38 61 -37 60 26 58 c14 32 26 63 26 69 0 6 19 16 43 22 73 19 82 22 95 32 17 14 17 232 0 246 -7 5 -39 16 -71 23 l-58 12 -30 65 c-16 36 -29 69 -29 73 0 5 14 31 30 57 17 27 30 56 30 63 0 8 -38 52 -84 98 l-85 84 -62 -37 c-59 -35 -63 -36 -93 -22 -17 8 -48 21 -68 29 -29 12 -39 23 -47 54 -6 21 -11 44 -11 51 0 6 -9 21 -20 32 -17 17 -32 20 -117 19 -54 -1 -106 -3 -115 -6z m268 -253 c79 -28 131 -60 187 -117 107 -109 147 -207 147 -357 -1 -193 -104 -359 -276 -442 -117 -56 -114 -60 -114 113 l0 146 55 58 55 58 0 114 c0 110 1 115 24 131 50 32 41 123 -15 151 -43 23 -77 18 -110 -14 -41 -42 -41 -99 1 -134 30 -25 30 -27 30 -124 l0 -97 -52 -54 -53 -53 -3 -174 -4 -175 -33 0 -34 0 -3 241 c-3 239 -3 242 19 256 12 8 26 27 31 43 28 79 -48 149 -124 114 -60 -28 -71 -98 -24 -146 l30 -30 0 -229 c0 -258 5 -245 -78 -209 l-47 20 3 123 c3 103 7 125 23 143 51 55 -14 145 -86 118 -41 -16 -53 -96 -19 -125 10 -8 14 -38 14 -112 l0 -101 -51 49 c-32 32 -65 80 -92 134 -40 80 -42 89 -45 190 -3 89 0 117 18 170 57 169 208 306 375 340 67 13 181 5 251 -19z"/> </g> </svg> 